<svg width="55" height="56" viewBox="0 0 55 56" fill="none" xmlns="http://www.w3.org/2000/svg">
<path fill-rule="evenodd" clip-rule="evenodd" d="M6.90607 48.5563C9.63857 47.6825 12.1675 46.8887 14.6903 46.058C15.2022 45.8857 15.5847 45.9411 16.0411 46.2242C20.4575 48.9316 25.2625 49.9654 30.4006 49.3254C42.7061 47.7994 51.4217 36.4097 49.6514 24.2139C47.875 11.9934 36.4454 3.5696 24.2016 5.46481C8.33709 7.91997 0.22596 26.0476 9.04642 39.4002C9.53988 40.1509 9.58922 40.7354 9.29315 41.5415C8.47278 43.8059 7.73877 46.095 6.90607 48.5563ZM0 55.2726C0.881329 52.643 1.75649 50.0565 2.6255 47.47C3.26646 45.5671 3.88278 43.658 4.5484 41.7612C4.70247 41.3117 4.67782 40.9668 4.44362 40.5419C-1.49148 29.888 0.203384 17.1711 8.70235 8.48788C18.7298 -1.76571 35.74 -2.00588 46.0633 7.95826C56.6577 18.1934 57.2309 34.5314 47.3637 45.37C39.4071 54.1148 26.4029 56.5473 15.8084 51.2389C15.0565 50.8571 14.4217 50.7831 13.602 51.0541C9.38646 52.4582 5.14006 53.7946 0.905981 55.1371C0.653293 55.2171 0.41293 55.3896 0 55.2726Z" fill="#FCFDFC"/>
<path fill-rule="evenodd" clip-rule="evenodd" d="M20.3198 14.1412C20.4276 14.1412 20.5115 14.1471 20.5834 14.1412C21.9735 14.004 22.6985 14.6361 23.0759 15.9658C23.4594 17.3194 23.9807 18.6551 24.5619 19.9491C24.9813 20.9032 24.7835 21.6784 24.1724 22.4178C23.7829 22.8829 23.3875 23.348 22.9441 23.7535C22.4528 24.2067 22.3989 24.6599 22.7104 25.2204C24.5079 28.4583 26.9585 31.0403 30.3018 32.7099C32.345 33.7355 32.0813 33.8906 33.6811 32.0719C34.0825 31.6127 34.502 31.1655 34.8615 30.6825C35.2569 30.1697 35.7302 29.9848 36.3054 30.277C38.1389 31.2013 39.9603 32.1553 41.7818 33.1154C42.1892 33.3241 42.2371 33.6998 42.2312 34.1231C42.1952 36.8303 40.1161 39.0843 37.312 39.5733C35.8021 39.8297 34.4061 39.615 32.9621 39.1797C26.6469 37.2537 21.9974 33.2823 18.5163 27.7904C17.282 25.8465 16.1137 23.8906 15.8201 21.5591C15.4666 18.7863 16.3833 16.4965 18.4983 14.6719C19.0256 14.2187 19.6607 14.0636 20.3198 14.1412Z" fill="#FCFDFC"/>
</svg>
